<svg xmlns="http://www.w3.org/2000/svg"><defs>
        <style>
            .cls-1{fill:#fff;fill-rule:evenodd}
        </style>
    
        <style>
            .cls-1{fill:#f1fbff;fill-rule:evenodd}
        </style>
    
        <style>
            .cls-1{fill:#fff;fill-rule:evenodd}
        </style>
    </defs><symbol id="says" viewBox="0 0 29.69 33.91">
    
    <path id="says" data-name="says" class="cls-1" d="M1248.2 1280.34a10.6 10.6 0 0 1 .03 21.19l-.13-.01c-.12-.01-.23-.02-.35-.02l-.71-.03-.68.2-7.09 2.12.86-3.39.47-1.86-1.09-1.59a10.587 10.587 0 0 1 8.69-16.61m0-4.23a14.821 14.821 0 0 0-12.18 23.25l-2.69 10.64 14.24-4.27c.21.01.42.03.63.03a14.825 14.825 0 0 0 0-29.65z" transform="translate(-1233.31 -1276.09)"/>
</symbol><symbol id="search" viewBox="0 0 33.75 33.91">
    
    <path id="search" data-name="search" class="cls-1" d="M943.378 1280.24a8.468 8.468 0 0 1 6.867 13.37l-.829 1.17-1.166.83a8.314 8.314 0 0 1-4.872 1.57 8.47 8.47 0 0 1 0-16.94m0-4.24a12.71 12.71 0 0 0 0 25.42 12.52 12.52 0 0 0 7.316-2.36l10.154 10.21a2.116 2.116 0 0 0 2.986-3l-10.155-10.21a12.707 12.707 0 0 0-10.3-20.06z" transform="translate(-930.719 -1276)"/>
</symbol><symbol id="write" viewBox="0 0 33.937 33.91">
    
    <path id="write" data-name="write" class="cls-1" d="M658.514 1281.09l3.03 3.03-12.608 13.06h-3.5v-3.49l13.076-12.6m.027-5.09a2.121 2.121 0 0 0-1.5.62l-15.839 15.27v9.53h9.539l15.28-15.83a2.114 2.114 0 0 0 0-2.99l-5.981-5.98a2.121 2.121 0 0 0-1.5-.62zm3.856 28.6a1.055 1.055 0 0 1-1.06 1.05h-23.316a1.055 1.055 0 0 1-1.06-1.05v-23.3a1.057 1.057 0 0 1 1.06-1.06h5.3a2.12 2.12 0 0 0 2.12-2.12 2.12 2.12 0 0 0-2.12-2.12h-8.479a2.12 2.12 0 0 0-2.12 2.12v29.65a2.12 2.12 0 0 0 2.12 2.12h29.678a2.12 2.12 0 0 0 2.12-2.12v-8.47a2.12 2.12 0 0 0-2.12-2.12 2.12 2.12 0 0 0-2.12 2.12v5.3z" transform="translate(-632.719 -1276)"/>
</symbol></svg>